/* XPM */
static char *tex_west[] = {
"4 4 3 1",
"0 c #32CD32",
"1 c #228B22",
"2 c #7CFC00",
"0011",
"0011",
"1122",
"1122"
};
