/* XPM */
static char *wall_xpm[] = {
"4 4 2 1",
"0 c #CCCCCC",
"1 c #333333",
"0011",
"0011",
"1100",
"1100"
};
