/* XPM */
static char *eagle_texture[] = {
"4 4 4 1",
"0 c #FFFFFF",
"1 c #000000",
"2 c #A0522D",
"3 c #FFD700",
"0123",
"1230",
"2301",
"3012"
};
