/* XPM */
static char *grey_stone[] = {
"4 4 3 1",
"0 c #A0A0A0",
"1 c #707070",
"2 c #404040",
"0121",
"1212",
"2121",
"1210"
};
