/* XPM */
static char *purple_stone[] = {
"4 4 3 1",
"0 c #6A0DAD",
"1 c #8A2BE2",
"2 c #D8BFD8",
"0101",
"1212",
"2121",
"1010"
};
