/* XPM */
static char *red_brick[] = {
"4 4 3 1",
"0 c #8B0000",
"1 c #B22222",
"2 c #FFDAB9",
"0110",
"1221",
"0110",
"1221"
};
