/* XPM */
static char *wood_texture[] = {
"4 4 3 1",
"0 c #8B4513",
"1 c #A0522D",
"2 c #CD853F",
"0101",
"1212",
"2010",
"1212"
};
